<svg width="700" height="672" viewBox="0 0 700 672" fill="none" xmlns="http://www.w3.org/2000/svg">
<path fill-rule="evenodd" clip-rule="evenodd" d="M437.22 66.4117C436.67 66.4769 435.569 66.6157 434.773 66.7198L433.325 66.9085L437.271 70.6223C456.288 88.5215 469.107 106.363 477.837 127.08C483.381 140.236 486.915 154.985 488.402 171.175C488.966 177.31 488.973 197.991 488.414 204.117C485.495 236.074 476 261.352 457.803 285.608C456.417 287.456 454.553 289.817 453.661 290.855C452.77 291.893 452.04 292.829 452.04 292.935C452.04 293.309 455.666 293.121 458.39 292.604C474.398 289.571 495.763 275.394 510.928 257.744C525.154 241.188 534.436 222.603 538.777 201.986C543.192 181.021 541.493 158.067 533.813 134.905C527.916 117.119 521.008 105.154 510.265 94.114C492.722 76.086 468.987 66.044 444.39 66.2426C440.996 66.2699 437.769 66.3461 437.22 66.4117ZM391.758 167.557C378.087 168.412 367.766 172.569 359.404 180.587C352.924 186.801 348.673 194.894 346.931 204.331C346.1 208.828 345.949 216.753 346.606 221.254C348.074 231.293 352.826 240.614 360.271 248.056C367.148 254.931 375.63 259.538 385.111 261.548C387.957 262.152 389.69 262.289 394.589 262.296C398.13 262.302 401.47 262.132 402.749 261.882C409.097 260.64 417.209 257.068 422.232 253.305C437.935 241.54 445.366 222.87 441.673 204.459C440.821 200.214 440.053 197.933 438.074 193.771C432.562 182.175 422.765 173.795 409.934 169.7C405.007 168.127 397.253 167.213 391.758 167.557ZM320.319 277.043C312.784 277.656 307.786 278.297 302.334 279.352C281.886 283.307 261.584 292.646 245.715 305.396C242.009 308.373 234.62 315.959 231.863 319.616C223.398 330.844 218.5 342.898 216.858 356.542C216.337 360.867 216.336 371.484 216.854 376.314C219.725 403.029 233.581 424.383 258.312 440.207C260.543 441.634 262.415 442.756 262.473 442.7C262.531 442.645 262.117 441.687 261.554 440.572C257.131 431.819 252.879 417.875 251.344 407.094C250.565 401.625 250.549 390.916 251.313 386.796C253.488 375.078 258.648 365.284 267.197 356.647C272.425 351.367 277.584 347.683 284.445 344.335C297.977 337.732 312.823 336.322 327.452 340.252C345.016 344.97 360.194 358.48 368.274 376.589C373.274 387.793 375.256 399.225 375.239 416.743C375.224 432.002 373.388 444.933 368.789 462.164C366.135 472.107 360.843 487.49 356.913 496.682C356.111 498.557 355.456 500.156 355.456 500.235C355.456 500.451 349.903 513.097 346.972 519.558C344.448 525.119 338.909 536.36 336.682 540.44C336.056 541.585 334.235 544.918 332.634 547.846C322.982 565.504 306.56 592.538 288.012 621.303C287.097 622.722 282.807 629.236 278.48 635.777C274.152 642.319 270.659 647.725 270.717 647.79C271.078 648.2 294.947 630.094 308.925 618.806C323.64 606.923 340.819 592.321 349.96 583.927C364.582 570.5 381.365 554.159 390.78 544.183C406.21 527.832 421.259 509.436 431.47 494.44C448.291 469.737 457.128 448.827 461.01 424.543C462.452 415.521 462.88 402.879 462.044 393.95C460.778 380.413 457.183 367.039 451.411 354.392C436.101 320.847 407.062 295.248 371.167 283.655C360.058 280.067 349.854 278.08 337.821 277.164C333.721 276.852 323.536 276.781 320.319 277.043Z" fill="#2F2F2F"/>
<path d="M44.24 172.48L18.48 222.88L31.92 175.84L61.6 133.84L115.92 77.28L161.84 40.88L218.96 22.96L228.48 10.08L281.12 0L374.64 5.04L269.36 22.96L264.32 36.4L232.4 54.32L188.72 61.6L168 77.28L126 87.36L112 99.12L44.24 172.48Z" fill="#2F2F2F"/>
<path d="M203.84 198.8L258.72 183.68L230.16 198.8L220.64 212.24H212.8L206.08 224L199.36 241.36L188.72 253.12L181.44 270.48L183.68 280.56L171.92 311.92V336.56L166.32 360.64L174.16 385.84V399.84L181.44 421.12L192.64 434.56V448L199.92 466.48L225.68 493.36L203.84 478.24L181.44 448L174.16 442.96L159.04 413.28L140.56 403.2L135.52 372.4L124.88 344.96V307.44L117.6 299.6L124.88 273.84V262.64L138.88 248.64L161.84 232.4L166.32 224L199.36 204.4L203.84 198.8Z" fill="#2F2F2F"/>
<path d="M337.68 25.76L274.4 45.36L328.16 34.72H357.28L381.36 46.48L410.48 57.68L451.36 52.08L463.68 54.32L480.48 52.08L503.44 67.76L519.68 75.6L530.32 100.8L552.72 124.32L551.04 137.76L593.6 170.24L599.2 188.72L623.28 223.44L631.12 262.08L651.28 302.96V325.92L661.92 350L654.08 386.4L641.76 440.72L666.96 367.36L678.16 350V331.52V262.08L683.76 238.56L666.96 211.12L654.08 161.84L631.12 136.08L574 67.76L535.92 57.68L510.16 31.92H491.12L440.72 16.8H390.32L365.12 25.76H337.68Z" fill="#FF9432"/>
<path d="M692.16 332.64L694.96 288.4L700 337.12L694.96 354.48V379.12V400.96L678.16 428.4L670.88 446.32V455.28L647.92 486.64L632.24 492.8L599.76 542.08L625.52 478.24L643.44 470.96L655.2 440.16L678.16 393.68L680.4 375.2L687.12 357.28V348.88L692.16 332.64Z" fill="#2F2F2F"/>
<path d="M618.24 260.4L594.72 214.48L616 273.84V288.96L620.48 311.36V324.24L624.96 338.8L618.24 374.08L614.32 390.32V414.4L596.96 453.6L591.36 458.08V477.12L570.08 497.28L551.6 523.04L523.6 555.52H513.52L497.84 572.88L491.12 589.68L465.92 600.32L436.8 612.08L423.36 624.96L391.44 627.76L374.64 638.96L344.4 649.04L325.36 644.56L306.88 653.52L291.76 649.04L283.36 653.52L281.68 660.8L266.56 666.96L349.44 672L397.04 660.8L430.08 649.04H453.04L493.36 621.6L516.32 612.08L537.04 589.68L551.6 585.2L578.48 544.88L584.08 535.92H591.36L609.84 487.76L624.96 462.56L631.12 430.08L635.04 419.44V406.56L637.28 364.56L642.88 338.8L631.12 318.08L628.32 287.28L618.24 260.4Z" fill="#2F2F2F"/>
<path d="M212.8 644L169.12 627.76L208.32 650.16L235.2 656.32L246.4 666.4L287.28 668.64L268.8 664.72L254.24 652.96L252 644L235.2 646.24L212.8 644Z" fill="#2F2F2F"/>
<path d="M106.4 341.6V307.44L100.8 329.84L92.96 353.36V358.96V390.88L90.72 400.96L96.32 420.56L98.56 436.8L96.32 438.48L111.44 457.52L119.84 464.24V477.68V493.36L133.28 504L142.24 521.36V528.08L161.28 543.2L169.68 553.28V558.88L184.24 560.56L210 580.16L221.76 585.2H232.96L249.76 597.52L254.24 603.12H272.72L286.16 594.72L302.96 575.68V562.8L312.48 557.2L315.28 543.2L280.56 535.92L254.24 521.36H240.24L235.76 515.2H225.12L199.36 489.44L179.76 481.04L170.8 455.28H156.24L142.24 427.84L134.96 413.28H129.36L125.44 393.12H119.84L115.92 376.88L111.44 353.36L106.4 341.6Z" fill="#2F2F2F"/>
<path d="M393.68 558.32L410.48 542.08L413.28 543.2L425.04 530.88L439.04 534.8L452.48 530.88L467.6 512.4L487.2 488.88L461.44 534.8L448 552.16H442.4L439.04 556.64L422.8 566.16L410.48 582.96H403.76L391.44 591.36L343.84 605.92L355.6 599.76L361.76 591.36L384.72 572.88L393.68 558.32Z" fill="#2F2F2F"/>
<path d="M578.48 212.8L552.16 169.12L554.4 190.4L549.36 208.32V217.28H545.44L542.64 230.72L539.84 245.28L529.2 249.76V262.64L518 271.04H511.84L504 282.8H500.08L493.36 294.56L482.16 297.92H479.92V303.52L485.52 316.4L496.16 330.96L500.08 339.36V348.32L506.8 359.52L507.92 369.04L511.84 377.44L507.92 388.08L515.2 390.88L511.84 404.32V424.48L506.24 439.04L511.84 444.08L507.92 451.92L511.84 469.28L502.88 486.64L496.16 501.2V506.8L490 510.72V519.68L474.32 538.72L467.6 557.2H458.08V565.04L445.2 568.96L438.48 573.44H430.64L418.32 591.36L408.24 595.28H400.96L392 603.68L383.04 609.84H372.4L364.56 614.88H358.96H353.36L338.24 621.6L332.64 618.8L317.52 630L307.44 636.16L353.36 624.96L361.76 630L389.2 614.88L399.28 611.52L408.24 614.88L418.32 605.92L426.72 600.32L448.56 591.36L451.92 587.44H458.08L462.56 580.16L472.08 576.24L476 568.96L491.68 565.04L502.88 552.16L516.88 538.72L524.72 534.24L526.96 529.2H530.32L532 522.48L544.32 503.44L549.92 495.04L552.16 488.88L566.16 476L567.84 469.28L577.92 456.4L582.96 451.92L585.76 444.08L589.12 428.96V423.36L596.4 408.8V401.52L602.56 394.24L607.6 369.04L604.8 355.04L607.6 348.32L604.8 339.36L611.52 333.2L604.8 313.04L602.56 306.32V282.8V271.04L588.56 235.76H582.96L578.48 212.8Z" fill="#FF9432"/>
<path d="M462.56 249.76L450.24 267.12L458.08 229.6L455.84 218.96L458.08 206.08L447.44 185.92L444.64 173.04L431.2 160.16L415.52 157.36L406 148.96L377.44 157.36L357.28 164.08L343.28 180.32L327.04 169.12L300.16 173.04L269.92 164.08L260.4 160.16L251.44 169.12L247.52 175.28H227.92L211.68 183.12L203.28 180.32L185.92 189.28H180.32L168 206.08L156.8 211.12L150.64 222.88L134.4 233.52L122.64 250.88L112.56 255.36L98.56 271.04V283.36L89.6 299.6L87.36 319.2L77.28 336.56L80.08 366.8L74.48 394.8L81.2 410.48V427.28L87.36 443.52L82.88 449.68L98.56 470.4V477.68L101.36 486.08H105.28V500.64L107.52 512.96L118.16 519.12L127.12 523.6L129.36 533.12L141.68 545.44L145.04 558.88H152.32L159.6 564.48L163.52 575.68H174.72L179.2 581.28L193.76 591.36L199.92 588L210.56 597.52L218.4 605.36L225.68 610.96L238.56 609.28L252 615.44L268.24 618.8L274.4 613.76L289.52 607.6L277.2 618.8L269.36 629.44L265.44 631.12L263.76 637.28L247.52 629.44L231.28 626.64H218.4L207.76 621.04H193.76L176.4 612.64L152.32 605.36L136.08 595.84L127.12 597.52L121.52 588L115.36 577.36L105.28 568.96L83.44 558.88L76.16 545.44L66.08 538.16V542.08L57.68 530.88L54.88 519.12L48.72 508.48L35.84 492.24V479.92L31.36 470.4L26.32 465.92V450.8V445.2L17.92 438.48L4.48 416.64L12.32 407.68L10.08 402.08L0 390.88L4.48 366.8L0 357.84L6.72 327.04V314.16V302.4L12.32 290.64V283.36L17.36 267.68L22.96 255.36V248.08L35.28 233.52L48.16 206.08L51.52 195.44L69.44 175.28H74.48L80.08 160.16L98.56 138.88L117.6 120.4L138.32 109.76L142.24 101.92L146.72 95.76L155.68 88.48H174.16C175.504 88.48 176.96 85.12 177.52 83.44H186.48L197.12 76.16L207.2 66.64H230.16L255.92 61.04L260.4 54.88H305.76L324.8 57.68L344.4 54.88H352.24L365.12 61.04L385.28 66.64H394.24L400.96 63.28L415.52 71.12L425.6 78.96L435.12 80.64L458.08 117.6H462.56V127.12L470.4 137.76V157.36V168.56L474.32 182.56L478.24 201.6L470.4 218.96L468.72 232.4L462.56 239.12V249.76Z" fill="#FF9432"/>
</svg>
