<svg width="39" height="11" viewBox="0 0 39 11" fill="none" xmlns="http://www.w3.org/2000/svg">
<path d="M6.03293 3.305L5.89793 4.58H12.4379L11.9729 9.305L9.93293 11H0.00292969L0.28793 8.21H6.82793L6.94793 6.92H0.42293L0.88793 2.255L2.92793 0.499999H12.8429L12.5729 3.305H6.03293ZM13.8996 0.499999H26.1546L25.2696 9.305L23.2296 11H12.8496L13.8996 0.499999ZM18.6096 8.195H19.8996L20.3796 3.305H19.1046L18.6096 8.195ZM32.1804 3.305L32.0454 4.58H38.5854L38.1204 9.305L36.0804 11H26.1504L26.4354 8.21H32.9754L33.0954 6.92H26.5704L27.0354 2.255L29.0754 0.499999H38.9904L38.7204 3.305H32.1804Z" fill="white"/>
</svg>
